<?xml version="1.0" standalone="no"?>
<!DOCTYPE svg PUBLIC "-//W3C//DTD SVG 20010904//EN"
 "http://www.w3.org/TR/2001/REC-SVG-20010904/DTD/svg10.dtd">
<svg version="1.0" xmlns="http://www.w3.org/2000/svg"
 width="537.000000pt" height="537.000000pt" viewBox="0 0 537.000000 537.000000"
 preserveAspectRatio="xMidYMid meet">
<metadata>
Created by potrace 1.14, written by Peter Selinger 2001-2017
</metadata>
<g transform="translate(0.000000,537.000000) scale(0.100000,-0.100000)"
fill="#000000" stroke="none">
<path d="M555 5334 c-274 -47 -487 -258 -539 -534 -10 -50 -12 -532 -11 -2145
2 -1924 3 -2084 19 -2140 65 -229 226 -397 451 -472 l80 -27 2080 -1 c2199 -2
2153 -2 2276 44 165 63 325 225 384 391 42 117 42 84 40 2255 -2 1928 -3 2084
-19 2140 -69 244 -249 421 -489 483 -55 14 -280 16 -2132 17 -1589 1 -2086 -1
-2140 -11z m4215 -333 c59 -17 107 -46 148 -90 84 -90 85 -95 84 -691 0 -283
-1 -521 -1 -527 -1 -10 -475 -13 -2333 -13 l-2333 0 1 517 c0 285 4 535 8 556
17 90 82 184 151 219 32 16 104 36 145 40 14 2 938 3 2055 2 1585 -1 2040 -4
2075 -13z m231 -1665 c1 -15 1 -1298 0 -1311 -1 -8 -716 -11 -2333 -11 l-2333
0 2 645 c0 356 2 655 2 667 l1 20 2330 0 c1646 0 2330 -3 2331 -10z m2 -2191
c-1 -576 -2 -584 -58 -666 -36 -52 -85 -87 -153 -111 -57 -21 -70 -21 -2117
-21 -1610 0 -2070 3 -2105 13 -64 17 -125 56 -157 98 -78 103 -79 111 -77 697
1 275 3 506 3 513 1 10 471 12 2333 10 l2332 -3 -1 -530z"/>
<path d="M4115 4673 c-33 -9 -74 -43 -92 -76 -15 -27 -18 -63 -18 -252 0 -214
1 -221 23 -258 42 -67 59 -71 307 -71 245 0 262 3 307 66 22 32 23 38 23 265
0 218 -1 233 -21 259 -50 68 -54 69 -292 71 -119 0 -226 -1 -237 -4z"/>
<path d="M4142 3009 c-46 -6 -84 -30 -116 -73 -20 -26 -21 -41 -21 -255 l0
-228 28 -36 c50 -66 66 -70 303 -70 246 0 271 6 311 83 22 41 23 54 23 250 0
196 -1 209 -23 250 -39 74 -68 83 -281 84 -99 1 -200 -2 -224 -5z"/>
<path d="M4119 1341 c-32 -7 -70 -37 -95 -75 -17 -27 -19 -50 -20 -237 -1
-219 5 -261 45 -303 39 -42 81 -48 308 -44 232 3 237 5 287 72 20 26 21 41 21
259 0 227 -1 233 -23 265 -45 62 -64 67 -292 67 -113 1 -216 -1 -231 -4z"/>
</g>
</svg>
